<!--
This file is part of SQLantern Database Manager
Copyright (C) 2023 SQLantern
License: GNU General Public License v3.0
https://github.com/nekto-kotik/sqlantern
https://sqlantern.com/

SQLantern is free software: you can redistribute it and/or modify it under the terms of the GNU General Public License as published by the Free Software Foundation, either version 3 of the License, or (at your option) any later version.
-->

<svg id="mysprite" xmlns="http://www.w3.org/2000/svg">
	<symbol id="close" baseProfile="basic" x="0px" y="0px" viewBox="0 0 15 15" xml:space="preserve">
	<g display="none"></g><g><g><polygon points="15,14.69 7.85,7.55 15,0.4 15,0.05 14.65,0.05 7.5,7.19 0.35,0.05 0,0.05 0,0.4 7.15,7.55 0,14.69 0,15.05     0.35,15.05 7.5,7.9 14.65,15.05 15,15.05   "/></g></g>
	</symbol>
	
	<symbol id="template" xmlns="http://www.w3.org/2000/svg" width="15" height="15" viewBox="0 0 15 15">
	<path d="M14.25.25h-9v4h-5v10.5h9.5v-4h5V.25Zm-13.5,14V4.75h8.5v9.5Zm13.5-4H9.75v-6h-4V.75h8.5Z"/>
	<rect x="2.25" y="9.25" width="5.5" height="0.5"/>
	<rect x="2.25" y="12.25" width="5.5" height="0.5"/>
	<rect x="2.25" y="6.25" width="3.5" height="0.5"/>
	</symbol>
	
	<symbol id="export" baseProfile="basic" x="0px" y="0px" viewBox="0 0 15 15" xml:space="preserve">
	<g display="none"></g><g>
	<polygon points="14.52,7.36 14.52,14.5 7.12,14.5 6.32,14.5 0.52,14.5 0.52,7.36 0.02,7.36 0.02,15 6.32,15 7.12,15 15.02,15    15.02,7.36  "/><path d="M9.67,2.61L7.72,0.09c0,0-0.01,0-0.01-0.01C7.66,0.04,7.6,0,7.52,0S7.39,0.04,7.34,0.09c0,0-0.01,0-0.01,0.01L5.37,2.61   C5.29,2.72,5.31,2.87,5.42,2.96c0.11,0.08,0.27,0.06,0.35-0.04l1.5-1.94v10.2c0,0.14,0.11,0.25,0.25,0.25s0.25-0.11,0.25-0.25V0.98   l1.5,1.94c0.05,0.06,0.12,0.1,0.2,0.1c0.05,0,0.11-0.02,0.15-0.05C9.74,2.87,9.76,2.72,9.67,2.61z"/></g>
	</symbol>
	
	<symbol id="small" baseProfile="basic" x="0px" y="0px" viewBox="0 0 15 15" xml:space="preserve">
	<g display="none"></g>
	<g><rect x="14.5" y="0" width="0.5" height="15"/><g><path d="M11.18,9.55H0.98L1.95,8.8c0.11-0.08,0.13-0.24,0.04-0.35C1.91,8.34,1.75,8.32,1.64,8.4L0.1,9.6c0,0,0,0.01-0.01,0.01    C0.04,9.66,0,9.73,0,9.8s0.04,0.14,0.09,0.18c0,0,0,0.01,0.01,0.01l1.55,1.2c0.05,0.04,0.1,0.05,0.15,0.05    c0.07,0,0.15-0.03,0.2-0.1c0.08-0.11,0.07-0.27-0.04-0.35l-0.97-0.75h10.2c0.14,0,0.25-0.11,0.25-0.25S11.32,9.55,11.18,9.55z"/>
	<path d="M0.09,5.38c0,0,0,0.01,0.01,0.01l1.55,1.2c0.05,0.04,0.1,0.05,0.15,0.05c0.07,0,0.15-0.03,0.2-0.1    C2.08,6.44,2.06,6.29,1.95,6.2L0.98,5.45h10.2c0.14,0,0.25-0.11,0.25-0.25s-0.11-0.25-0.25-0.25H0.98l0.97-0.75    c0.11-0.08,0.13-0.24,0.04-0.35C1.91,3.73,1.75,3.71,1.64,3.8L0.1,5c0,0,0,0.01-0.01,0.01C0.04,5.06,0,5.12,0,5.2    S0.04,5.34,0.09,5.38z"/></g></g>
	</symbol>
	
	<symbol id="drag" baseProfile="basic" x="0px" y="0px" viewBox="0 0 15 15" xml:space="preserve"><g display="none"></g><g><path d="M3.91,7.25H0.98L1.95,6.5C2.06,6.41,2.08,6.25,2,6.15C1.91,6.04,1.75,6.02,1.64,6.1L0.1,7.3c0,0,0,0.01-0.01,0.01   C0.04,7.36,0,7.42,0,7.5s0.04,0.14,0.09,0.18c0,0,0,0.01,0.01,0.01l1.55,1.2c0.05,0.04,0.1,0.05,0.15,0.05   c0.07,0,0.15-0.03,0.2-0.1C2.08,8.75,2.06,8.59,1.95,8.5L0.98,7.75h2.93c0.14,0,0.25-0.11,0.25-0.25S4.05,7.25,3.91,7.25z"/>
	<path d="M15,7.5c0-0.08-0.04-0.14-0.09-0.18c0,0,0-0.01-0.01-0.01l-1.55-1.2c-0.11-0.09-0.27-0.07-0.35,0.04   c-0.08,0.11-0.07,0.27,0.04,0.35l0.97,0.75h-2.93c-0.14,0-0.25,0.11-0.25,0.25s0.11,0.25,0.25,0.25h2.93L13.05,8.5   c-0.11,0.08-0.13,0.24-0.04,0.35c0.05,0.06,0.12,0.1,0.2,0.1c0.05,0,0.11-0.02,0.15-0.05l1.55-1.2c0,0,0-0.01,0.01-0.01   C14.96,7.64,15,7.58,15,7.5z"/><g><rect x="5.5" y="0" width="0.5" height="15"/><rect x="9" y="0" width="0.5" height="15"/></g></g>
	</symbol>
	
	<symbol id="color" xmlns:xlink="http://www.w3.org/1999/xlink" version="1.1" baseProfile="basic" x="0px" y="0px" viewBox="0 0 15 15" xml:space="preserve"><g display="none">
	</g><g><path d="M15.06,1.77c0-0.14-0.11-0.25-0.25-0.25c-0.02,0-0.04,0.02-0.06,0.02c-0.02-0.01-0.03-0.02-0.06-0.02H13V0H2v1.52H0.3   c-0.14,0-0.25,0.11-0.25,0.25S0.16,2.02,0.3,2.02H2v2h11v-2h1.56v2.54L7.43,6.64C7.41,6.64,7.4,6.67,7.38,6.68   C7.35,6.69,7.33,6.71,7.31,6.73C7.29,6.76,7.28,6.79,7.27,6.82C7.27,6.84,7.25,6.85,7.25,6.88v7.82c0,0.14,0.11,0.25,0.25,0.25   s0.25-0.11,0.25-0.25V7.06l7.13-2.08c0.02-0.01,0.03-0.03,0.05-0.04c0.03-0.02,0.05-0.03,0.07-0.06c0.02-0.03,0.03-0.05,0.04-0.09   c0.01-0.02,0.02-0.04,0.02-0.06V1.77z M12.5,3.52h-10V0.5h10V3.52z"/></g>
	</symbol>
	
	<symbol id="width_auto" width="15" height="15" viewBox="0 0 15 15"><path d="M.75.25H4v.5H.75V4H.25V.25Zm13.5,0H11v.5h3.25V4h.5V.25Zm0,14H11v.5h3.75V11h-.5ZM.75,11H.25v3.75H4v-.5H.75Z"/><path d="M11.17,10.86,7.72,3.91a.25.25,0,0,0-.44,0l-3.45,7a.26.26,0,0,0,.11.34.25.25,0,0,0,.34-.12L5.21,9.2H9.79l.93,1.88a.24.24,0,0,0,.22.14l.12,0A.26.26,0,0,0,11.17,10.86ZM5.46,8.7l2-4.12,2,4.12Z"/>
	</symbol>
	
	<symbol id="width_100" xmlns="http://www.w3.org/2000/svg" width="15" height="15" viewBox="0 0 15 15"><path d="M.75.25H4v.5H.75V4H.25V.25Zm13.5,0H11v.5h3.25V4h.5V.25Zm0,14H11v.5h3.75V11h-.5ZM.75,11H.25v3.75H4v-.5H.75Z"/><path d="M11.36,10.2c-1.11,0-2-1.23-2-2.74s.9-2.75,2-2.75,2,1.23,2,2.75S12.48,10.2,11.36,10.2Zm0-5c-.83,0-1.51,1-1.51,2.25s.68,2.24,1.51,2.24,1.52-1,1.52-2.24S12.2,5.21,11.36,5.21Z"/>
	<path d="M6.28,10.2c-1.12,0-2-1.23-2-2.74s.9-2.75,2-2.75,2,1.23,2,2.75S7.39,10.2,6.28,10.2Zm0-5c-.84,0-1.52,1-1.52,2.25S5.44,9.7,6.28,9.7s1.51-1,1.51-2.24S7.11,5.21,6.28,5.21Z"/>
	<path d="M2.66,10.24A.25.25,0,0,1,2.41,10V5.71l-.6.74a.25.25,0,1,1-.38-.32l1-1.29a.26.26,0,0,1,.28-.08A.25.25,0,0,1,2.91,5v5A.25.25,0,0,1,2.66,10.24Z"/>
	</symbol>

	<symbol id="width_50" width="15" height="15" viewBox="0 0 15 15"><path d="M.75.25H4v.5H.75V4H.25V.25Zm13.5,0H11v.5h3.25V4h.5V.25Zm0,14H11v.5h3.75V11h-.5ZM.75,11H.25v3.75H4v-.5H.75Z"/>
	<path d="M6.16,7.34a2.17,2.17,0,0,1,.61,1.49,2,2,0,0,1-.16.82,2.1,2.1,0,0,1-.45.7,2.6,2.6,0,0,1-.69.46,2.21,2.21,0,0,1-.81.16,2.15,2.15,0,0,1-1.23-.38A2,2,0,0,1,3,10.16a1.86,1.86,0,0,1-.3-.53.21.21,0,0,1,0-.17.26.26,0,0,1,.11-.12A.26.26,0,0,1,3,9.39a.27.27,0,0,1,.13.16,1.61,1.61,0,0,0,.61.73,1.76,1.76,0,0,0,1,.27,1.65,1.65,0,0,0,.66-.13,1.62,1.62,0,0,0,.55-.37,1.72,1.72,0,0,0,.37-.55,1.64,1.64,0,0,0,.14-.67,1.66,1.66,0,0,0-.14-.66,1.79,1.79,0,0,0-.37-.54,1.75,1.75,0,0,0-.55-.36,1.66,1.66,0,0,0-.66-.14H3.24a.21.21,0,0,1-.16-.06A.24.24,0,0,1,3,6.93V4.58a.25.25,0,0,1,.05-.15.21.21,0,0,1,.16-.06h3a.18.18,0,0,1,.15.06.2.2,0,0,1,.06.15c0,.14-.07.2-.21.2H3.44V6.72H4.66A2.11,2.11,0,0,1,6.16,7.34Z"/>
	<path d="M11.83,5a2.17,2.17,0,0,1,.47.69,2.32,2.32,0,0,1,.16.84V8.83a2.32,2.32,0,0,1-.16.84,2.17,2.17,0,0,1-.47.69,2.33,2.33,0,0,1-.7.47,2,2,0,0,1-.82.16,2.07,2.07,0,0,1-.82-.16,2.42,2.42,0,0,1-.69-.47,2,2,0,0,1-.47-.69,2.32,2.32,0,0,1-.16-.84V6.49a2.32,2.32,0,0,1,.16-.84A2,2,0,0,1,8.8,5a2.19,2.19,0,0,1,.69-.46,2.08,2.08,0,0,1,.82-.17,2,2,0,0,1,.82.17A2.13,2.13,0,0,1,11.83,5Zm-1.52,5.62a1.67,1.67,0,0,0,.67-.13,2,2,0,0,0,.56-.38,1.9,1.9,0,0,0,.37-.55A1.72,1.72,0,0,0,12,8.84V6.49a1.72,1.72,0,0,0-.13-.68,1.9,1.9,0,0,0-.37-.55A1.79,1.79,0,0,0,11,4.88a1.79,1.79,0,0,0-1.34,0,1.75,1.75,0,0,0-.55.38,1.9,1.9,0,0,0-.37.55,1.72,1.72,0,0,0-.13.68V8.84a1.72,1.72,0,0,0,.13.68,1.9,1.9,0,0,0,.37.55,1.93,1.93,0,0,0,.55.38A1.67,1.67,0,0,0,10.31,10.58Z"/>
	</symbol>
	
	<symbol id="width_25" width="15" height="15" viewBox="0 0 15 15">
	<path d="M.75.25H4v.5H.75V4H.25V.25Zm13.5,0H11v.5h3.25V4h.5V.25Zm0,14H11v.5h3.75V11h-.5ZM.75,11H.25v3.75H4v-.5H.75Z"/>
	<path d="M6.84,10.57a.21.21,0,0,1-.15.36H3.2a.18.18,0,0,1-.14-.06A.2.2,0,0,1,3,10.72a6.49,6.49,0,0,1,.07-1.11,1.36,1.36,0,0,1,.27-.67,1.82,1.82,0,0,1,.55-.46c.23-.12.51-.26.86-.41l0,0,.43-.19.48-.24a1.58,1.58,0,0,0,.56-.56,1.51,1.51,0,0,0,.21-.77,1.45,1.45,0,0,0-.12-.59A1.51,1.51,0,0,0,6,5.2a1.63,1.63,0,0,0-.49-.33,1.56,1.56,0,0,0-1.2,0,1.51,1.51,0,0,0-.49.33,1.58,1.58,0,0,0-.33.48,1.53,1.53,0,0,0-.12.6.23.23,0,0,1-.06.16.19.19,0,0,1-.14,0,.17.17,0,0,1-.14,0A.23.23,0,0,1,3,6.28a2,2,0,0,1,.14-.75,1.69,1.69,0,0,1,.43-.63,2,2,0,0,1,.62-.42,1.86,1.86,0,0,1,.75-.15,1.94,1.94,0,0,1,.76.15,2,2,0,0,1,.63.43,1.93,1.93,0,0,1,.42.63,1.86,1.86,0,0,1,.15.75,2.32,2.32,0,0,1-.07.52,2.1,2.1,0,0,1-.2.48,2.23,2.23,0,0,1-.32.38,2,2,0,0,1-.4.31l-.36.17-.33.15-.14.07-.16.07h0a8.64,8.64,0,0,0-.79.38,1.34,1.34,0,0,0-.46.37,1.32,1.32,0,0,0-.2.49,5.43,5.43,0,0,0-.08.84H6.69A.25.25,0,0,1,6.84,10.57Z"/>
	<path d="M11.51,7.34a2.05,2.05,0,0,1,.61,1.49,2.21,2.21,0,0,1-.15.82,2.3,2.3,0,0,1-.46.7,2.6,2.6,0,0,1-.69.46,2.16,2.16,0,0,1-2-.22,2,2,0,0,1-.45-.43A1.86,1.86,0,0,1,8,9.63a.21.21,0,0,1,0-.17.26.26,0,0,1,.11-.12.26.26,0,0,1,.15.05.27.27,0,0,1,.13.16,1.57,1.57,0,0,0,.62.73,1.8,1.8,0,0,0,1.62.14,1.58,1.58,0,0,0,.54-.37,1.72,1.72,0,0,0,.37-.55,1.64,1.64,0,0,0,.14-.67,1.66,1.66,0,0,0-.14-.66,1.79,1.79,0,0,0-.37-.54A1.76,1.76,0,0,0,10,7.13H8.59a.21.21,0,0,1-.16-.06.24.24,0,0,1,0-.14V4.58a.25.25,0,0,1,0-.15.21.21,0,0,1,.16-.06h3a.18.18,0,0,1,.15.06.2.2,0,0,1,.06.15c0,.14-.07.2-.21.2H8.79V6.72H10A2.08,2.08,0,0,1,11.51,7.34Z"/>
	</symbol>
	
	<symbol id="unlock" baseProfile="basic" x="0px" y="0px" viewBox="0 0 20 20" xml:space="preserve">
	<g display="none"></g><g><g>
	<path d="M17.27,7.67H4.66V5.96c0-2.9,2.36-5.26,5.26-5.26c0.89,0,1.77,0.23,2.55,0.66c0.14,0.08,0.3,0.03,0.38-0.11    c0.08-0.14,0.03-0.31-0.11-0.38c-0.86-0.48-1.83-0.73-2.82-0.73c-3.21,0-5.82,2.61-5.82,5.82v1.71H2.77    c-0.15,0-0.28,0.12-0.28,0.28v9.27c0,0.15,0.13,0.28,0.28,0.28h14.5c0.15,0,0.28-0.12,0.28-0.28V7.95    C17.55,7.79,17.43,7.67,17.27,7.67z M16.99,16.94H3.05V8.23h13.94V16.94z"/>
	<path d="M8.16,12.86h3.73c0.15,0,0.28-0.12,0.28-0.28s-0.13-0.28-0.28-0.28H8.16c-0.15,0-0.28,0.12-0.28,0.28S8,12.86,8.16,12.86z    "/></g></g>
	</symbol>
	
	<symbol id="lock" baseProfile="basic" x="0px" y="0px" viewBox="0 0 20 20" xml:space="preserve">
	<g display="none"></g><g><g><path d="M17.27,7.67h-1.52V5.96c0-3.21-2.61-5.82-5.82-5.82S4.1,2.75,4.1,5.96v1.71H2.77c-0.15,0-0.28,0.12-0.28,0.28v9.27    c0,0.15,0.13,0.28,0.28,0.28h14.5c0.15,0,0.28-0.12,0.28-0.28V7.95C17.55,7.79,17.43,7.67,17.27,7.67z M4.66,5.96    c0-2.9,2.36-5.26,5.26-5.26s5.26,2.36,5.26,5.26v1.71H4.66V5.96z M16.99,16.94H3.05V8.23h1.33h11.08h1.52V16.94z"/>
	<path d="M11.89,12.3H8.16c-0.15,0-0.28,0.12-0.28,0.28S8,12.86,8.16,12.86h3.73c0.15,0,0.28-0.12,0.28-0.28S12.04,12.3,11.89,12.3    z"/></g></g>
	</symbol>

	<symbol id="edit" baseProfile="basic" x="0px" y="0px" viewBox="0 0 15 15" xml:space="preserve">
	<g display="none"></g><g><g><path d="M12.97,4.5C12.97,4.5,12.97,4.5,12.97,4.5C12.97,4.5,12.97,4.5,12.97,4.5l1.59-1.59c0.05-0.05,0.07-0.11,0.07-0.18    s-0.03-0.13-0.07-0.18l-2.12-2.12c-0.1-0.1-0.26-0.1-0.35,0L10.5,2.03c0,0,0,0,0,0s0,0,0,0l-9.22,9.22c0,0,0,0,0,0.01    c-0.03,0.03-0.05,0.06-0.06,0.1l-0.85,2.97c-0.03,0.09,0,0.18,0.06,0.25c0.05,0.05,0.11,0.07,0.18,0.07c0.02,0,0.05,0,0.07-0.01    l2.97-0.85c0.04-0.01,0.07-0.03,0.1-0.06c0,0,0,0,0.01,0L12.97,4.5z M12.27,0.97l1.77,1.77L12.8,3.97L11.03,2.2L12.27,0.97z     M10.68,2.56l1.77,1.77l-8.86,8.86L2.7,12.3l-0.88-0.88L10.68,2.56z M0.98,14.02l0.61-2.12l0.76,0.76l0.76,0.76L0.98,14.02z"/>
	<path d="M14.39,14.14H5.05c-0.14,0-0.25,0.11-0.25,0.25s0.11,0.25,0.25,0.25h9.33c0.14,0,0.25-0.11,0.25-0.25    S14.52,14.14,14.39,14.14z"/></g></g>
	</symbol>

	<symbol id="add" baseProfile="basic" x="0px" y="0px" viewBox="0 0 15 15" xml:space="preserve">
	<g display="none"></g><g><polygon points="15,7.25 7.75,7.25 7.75,0 7.25,0 7.25,7.25 0,7.25 0,7.75 7.25,7.75 7.25,15 7.75,15 7.75,7.75 15,7.75  "/></g>
	</symbol>

	<symbol id="search" baseProfile="basic" x="0px" y="0px" viewBox="0 0 15 15" xml:space="preserve">
	<g display="none"></g><g><path d="M14.69,14.34l-3.18-3.18c0.88-0.97,1.43-2.25,1.43-3.66c0-3-2.44-5.44-5.44-5.44S2.06,4.5,2.06,7.5s2.44,5.44,5.44,5.44   c1.41,0,2.69-0.54,3.66-1.43l3.18,3.18c0.05,0.05,0.11,0.07,0.18,0.07s0.13-0.02,0.18-0.07C14.79,14.59,14.79,14.44,14.69,14.34z    M2.56,7.5c0-2.72,2.22-4.94,4.94-4.94s4.94,2.22,4.94,4.94s-2.22,4.94-4.94,4.94S2.56,10.22,2.56,7.5z"/></g>
	</symbol>

	<symbol id="keep_alive" baseProfile="basic" x="0px" y="0px" viewBox="0 0 20 20" xml:space="preserve">
	<g display="none"></g><g><g><path d="M18.49,12.42l-2-2.58c0,0-0.01,0-0.01-0.01c-0.05-0.05-0.11-0.09-0.18-0.09s-0.14,0.04-0.18,0.09c0,0-0.01,0-0.01,0.01    l-2,2.58c-0.08,0.11-0.07,0.27,0.04,0.35c0.11,0.08,0.27,0.06,0.35-0.04l1.49-1.92c-0.4,2.95-2.92,5.23-5.98,5.23    c-2.6,0-4.9-1.66-5.72-4.12c-0.04-0.13-0.18-0.2-0.32-0.16c-0.13,0.04-0.2,0.19-0.16,0.32c0.9,2.67,3.39,4.46,6.2,4.46    c3.38,0,6.16-2.57,6.5-5.86l1.59,2.05c0.05,0.06,0.12,0.1,0.2,0.1c0.05,0,0.11-0.02,0.15-0.05    C18.55,12.69,18.57,12.53,18.49,12.42z"/><path d="M3.89,10.16c0,0,0.01,0,0.01-0.01l2-2.58c0.08-0.11,0.07-0.27-0.04-0.35C5.75,7.14,5.6,7.16,5.51,7.27L4.02,9.19    C4.42,6.24,6.94,3.96,10,3.96c2.6,0,4.9,1.66,5.72,4.12c0.04,0.13,0.18,0.2,0.32,0.16c0.13-0.04,0.2-0.19,0.16-0.32    c-0.9-2.67-3.39-4.46-6.2-4.46c-3.38,0-6.16,2.57-6.5,5.86L1.91,7.27C1.82,7.16,1.66,7.14,1.56,7.23    C1.45,7.31,1.43,7.47,1.51,7.58l2,2.58c0,0,0.01,0,0.01,0.01c0.05,0.05,0.11,0.09,0.18,0.09S3.85,10.21,3.89,10.16z"/>
	</g></g>
	</symbol>

	<symbol id="time" baseProfile="basic" x="0px" y="0px" viewBox="0 0 20 20" xml:space="preserve">
	<g display="none"></g><g><g>
	<path d="M10.25,3.47V1.62h1.67c0.14,0,0.25-0.11,0.25-0.25s-0.11-0.25-0.25-0.25H8.08c-0.14,0-0.25,0.11-0.25,0.25    s0.11,0.25,0.25,0.25h1.67v1.85C6.26,3.61,3.46,6.48,3.46,10c0,3.61,2.93,6.54,6.54,6.54c3.61,0,6.54-2.93,6.54-6.54    C16.54,6.48,13.74,3.61,10.25,3.47z M10,16.04c-3.33,0-6.04-2.71-6.04-6.04S6.67,3.96,10,3.96s6.04,2.71,6.04,6.04    S13.33,16.04,10,16.04z"/><path d="M13.83,9.75h-3.58V6.17c0-0.14-0.11-0.25-0.25-0.25S9.75,6.03,9.75,6.17v3.83c0,0,0,0,0,0.01c0,0.14,0.11,0.25,0.25,0.25    h3.83c0.14,0,0.25-0.11,0.25-0.25S13.97,9.75,13.83,9.75z"/></g></g>
	</symbol>
	
	<symbol id="arrow" baseProfile="basic" x="0px" y="0px" viewBox="0 0 15 15" xml:space="preserve">
	<g display="none"></g><g>
	<path d="M15,7.5c0-0.08-0.04-0.14-0.09-0.18c0,0,0-0.01-0.01-0.01l-1.55-1.2c-0.11-0.09-0.27-0.07-0.35,0.04   c-0.08,0.11-0.07,0.27,0.04,0.35l0.97,0.75h-2.93c-0.14,0-0.25,0.11-0.25,0.25s0.11,0.25,0.25,0.25h2.93L13.05,8.5   c-0.11,0.08-0.13,0.24-0.04,0.35c0.05,0.06,0.12,0.1,0.2,0.1c0.05,0,0.11-0.02,0.15-0.05l1.55-1.2c0,0,0-0.01,0.01-0.01   C14.96,7.64,15,7.58,15,7.5z"></path><g><rect x="9" y="0" width="0.5" height="15"></rect></g></g>
	</symbol>
	
	<symbol id="arrow_page" baseProfile="basic" x="0px" y="0px" viewBox="0 0 20 20" xml:space="preserve"><g display="none"></g><g><polyline fill="none" stroke="#000000" stroke-width="1" stroke-linecap="round" stroke-linejoin="round" stroke-miterlimit="10" points="   14.14,1.45 5.86,10 14.14,18.55  "/></g>
	</symbol>
	
	<symbol id="duplicate" width="15" height="15" viewBox="0 0 15 15">
	  <path d="M14.25.25h-9v4h-5v10.5h9.5v-4h5V.25Zm-13.5,14V4.75h8.5v9.5Zm13.5-4H9.75v-6h-4V.75h8.5Z"/>
	</symbol>
</svg>